<svg xmlns="http://www.w3.org/2000/svg" width="16" height="16" fill="white" viewBox="0 0 14 17">
  <path d="M13.962 13.236a9.08 9.08 0 0 1-1.19 2.11c-.626.87-1.136 1.47-1.53 1.79-.61.55-1.265.84-1.962.86-.5 0-1.105-.14-1.817-.42a4.67 4.67 0 0 0-1.78-.42c-.7 0-1.376.14-2.027.42-.74.29-1.32.43-1.74.43-.67-.03-1.34-.3-2.005-.82-.43-.34-.97-.98-1.62-1.91a9.45 9.45 0 0 1-1.47-2.99c-.41-1.27-.61-2.49-.61-3.67 0-1.36.29-2.53.87-3.52a5.83 5.83 0 0 1 2.07-2.07A5.2 5.2 0 0 1 3.8 2.8c.75 0 1.54.18 2.36.54.82.36 1.35.55 1.58.55.18 0 .78-.21 1.8-.64.96-.38 1.78-.54 2.44-.49 1.8.14 3.16.86 4.06 2.18a4.55 4.55 0 0 0-2.35 4.11c0 1.36.5 2.47 1.48 3.32a4.4 4.4 0 0 0 1.27.94c-.08.24-.21.52-.39.84zM9.46 0c0 1-.37 1.93-1.1 2.79-.89 1.02-1.96 1.6-3.12 1.5A2.7 2.7 0 0 1 5.24 3a3.3 3.3 0 0 1 .92-2.17A3.3 3.3 0 0 1 8.2 0h1.26z"/>
</svg>
